<?xml version="1.0" encoding="UTF-8"?>
<svg id="Layer_1" xmlns="http://www.w3.org/2000/svg" version="1.1" viewBox="0 0 404.63 350.31">
  <!-- Generator: Adobe Illustrator 29.6.0, SVG Export Plug-In . SVG Version: 2.1.1 Build 207)  -->
  <defs>
    <style>
      .st0 {
        fill: #e02490;
      }
    </style>
  </defs>
  <path class="st0" d="M350.49,51.43c45.32,45.32,45.32,119.06,0,164.38-.11.11-.22.22-.33.33l-100.45,96.51c-27.19,27-71.27,26.95-98.41-.14l-97.07-96.16-.08-.08c-45.32-45.32-45.32-119.06,0-164.38C94.3,11.74,156.75,7.16,201.99,38.15c45.29-31.48,108.15-27.05,148.49,13.29h.01ZM317.77,182.77c27.04-27.2,26.99-71.33-.15-98.47s-71.43-27.19-98.63,0l-.45.45c-9.08,9.08-23.8,9.08-32.88,0-27.19-27.19-71.43-27.19-98.63,0-27.18,27.18-27.19,71.4-.03,98.59l97.06,96.16.08.08c9.06,9.06,23.81,9.06,32.88,0,.11-.11.22-.22.33-.33l100.42-96.48h0Z"/>
</svg>